<svg width="23" height="17" viewBox="0 0 23 17" fill="none" xmlns="http://www.w3.org/2000/svg">
<path d="M22.5511 14.4361V2.50426C22.5511 1.40388 21.6629 0.515625 20.5625 0.515625H1.98864C0.888258 0.515625 0 1.40388 0 2.50426V14.4361C0 15.5365 0.888258 16.4247 1.98864 16.4247H20.5625C21.6629 16.4247 22.5511 15.5365 22.5511 14.4361ZM20.8144 2.35843C21.2519 2.79593 21.0133 3.24669 20.7746 3.47206L15.392 8.40388L20.5625 13.7865C20.7216 13.9721 20.8277 14.2637 20.642 14.4626C20.4697 14.6747 20.072 14.6615 19.8996 14.5289L14.1061 9.58381L11.2689 12.169L8.44508 9.58381L2.65152 14.5289C2.47917 14.6615 2.08144 14.6747 1.90909 14.4626C1.72348 14.2637 1.82955 13.9721 1.98864 13.7865L7.15909 8.40388L1.77652 3.47206C1.53788 3.24669 1.29924 2.79593 1.73674 2.35843C2.17424 1.92093 2.625 2.13305 2.99621 2.45123L11.2689 9.13305L19.5549 2.45123C19.9261 2.13305 20.3769 1.92093 20.8144 2.35843Z" fill="#655757"/>
</svg>
