<svg width="19" height="24" viewBox="0 0 19 24" fill="none" xmlns="http://www.w3.org/2000/svg">
<path d="M9.23569 0.181641C6.81922 0.184491 4.50255 1.14569 2.79385 2.85439C1.08515 4.56309 0.123954 6.87976 0.121103 9.29622C0.118209 11.271 0.763251 13.1921 1.95728 14.765C1.95728 14.765 2.20586 15.0923 2.24646 15.1395L9.23569 23.3824L16.2282 15.1354C16.2647 15.0914 16.5141 14.765 16.5141 14.765L16.5149 14.7625C17.7084 13.1903 18.3531 11.2701 18.3503 9.29622C18.3474 6.87976 17.3862 4.56309 15.6775 2.85439C13.9688 1.14569 11.6521 0.184491 9.23569 0.181641ZM9.23569 12.6106C8.58016 12.6106 7.93936 12.4162 7.39431 12.052C6.84926 11.6879 6.42444 11.1702 6.17359 10.5646C5.92273 9.95896 5.85709 9.29255 5.98498 8.64962C6.11286 8.00669 6.42853 7.41612 6.89206 6.95259C7.35558 6.48907 7.94615 6.1734 8.58908 6.04552C9.23201 5.91763 9.89842 5.98326 10.504 6.23412C11.1097 6.48498 11.6273 6.9098 11.9915 7.45485C12.3557 7.9999 12.5501 8.6407 12.5501 9.29622C12.549 10.1749 12.1994 11.0173 11.5781 11.6386C10.9568 12.26 10.1144 12.6095 9.23569 12.6106Z" fill="#655757"/>
</svg>
