<svg width="102" height="101" viewBox="0 0 102 101" fill="none" xmlns="http://www.w3.org/2000/svg">
<g clip-path="url(#clip0_2704_1103)">
<path d="M80.6959 58.6216C79.4636 66.3673 69.7815 74.6411 62.2119 74.8172C61.6837 74.8172 61.1556 74.9932 60.8035 75.3453C60.4515 75.5213 60.0994 75.6974 59.9234 76.2255C57.2828 81.1545 58.6911 85.0274 63.092 88.1961C68.1972 91.8929 76.2949 88.1961 80.3438 84.8514C90.554 76.4015 100.94 61.7906 100.412 47.8833C102.173 38.553 101.82 28.5191 99.1799 20.2453C97.4195 14.9641 92.3144 12.3235 87.0333 11.9715C81.7521 11.6191 70.8377 10.035 66.0847 13.2035C61.3317 16.3724 60.9796 22.5338 60.4515 27.8146C59.9234 33.6239 58.339 44.5386 63.2681 49.1156C68.1972 53.5165 82.2802 48.7635 80.6959 58.6216Z" fill="#E5E5E5"/>
<path d="M22.6032 58.6216C21.3709 66.3673 11.6891 74.6411 4.11919 74.8172C3.59107 74.8172 3.06296 74.9932 2.71088 75.3453C2.35852 75.5213 2.00673 75.6974 1.8304 76.2255C-0.810173 81.1545 0.598129 85.0274 4.99909 88.1961C10.1042 91.8929 18.202 88.1961 22.2511 84.8514C32.4614 76.4015 42.8476 61.7903 42.3195 47.8833C44.0799 38.553 43.7278 28.5191 41.0875 20.2453C39.3271 14.9641 34.222 12.3235 28.9406 11.9715C23.6594 11.6191 12.7451 10.035 7.99203 13.2035C3.23928 16.3724 2.88692 22.5338 2.35881 27.8146C1.83069 33.6239 0.246342 44.5386 5.17542 49.1156C10.1045 53.5165 24.3636 48.7635 22.6032 58.6216Z" fill="#E5E5E5"/>
</g>
<defs>
<clipPath id="clip0_2704_1103">
<rect width="101" height="101" fill="white" transform="matrix(-1 0 0 -1 101.5 101)"/>
</clipPath>
</defs>
</svg>
