<svg width="102" height="101" viewBox="0 0 102 101" fill="none" xmlns="http://www.w3.org/2000/svg">
<g clip-path="url(#clip0_2704_1099)">
<path d="M21.3041 42.3784C22.5364 34.6327 32.2185 26.3589 39.7881 26.1828C40.3163 26.1828 40.8444 26.0068 41.1965 25.6547C41.5485 25.4787 41.9006 25.3026 42.0766 24.7745C44.7172 19.8455 43.3089 15.9726 38.908 12.8039C33.8028 9.10711 25.7051 12.8039 21.6562 16.1486C11.446 24.5985 1.05971 39.2094 1.58783 53.1167C-0.172557 62.447 0.179519 72.4809 2.82009 80.7547C4.58048 86.0359 9.68559 88.6765 14.9667 89.0285C20.2479 89.3809 31.1623 90.965 35.9153 87.7965C40.6683 84.6276 41.0204 78.4662 41.5485 73.1854C42.0766 67.3761 43.661 56.4614 38.7319 51.8844C33.8028 47.4835 19.7198 52.2365 21.3041 42.3784Z" fill="#E5E5E5"/>
<path d="M79.3969 42.3784C80.6292 34.6327 90.311 26.3589 97.8809 26.1828C98.409 26.1828 98.9372 26.0068 99.2892 25.6547C99.6416 25.4787 99.9934 25.3026 100.17 24.7745C102.81 19.8455 101.402 15.9726 97.001 12.8039C91.8959 9.10711 83.7982 12.8039 79.749 16.1486C69.5388 24.5985 59.1525 39.2097 59.6806 53.1167C57.9202 62.447 58.2723 72.4809 60.9126 80.7547C62.673 86.0359 67.7781 88.6765 73.0595 89.0285C78.3407 89.3809 89.2551 90.965 94.0081 87.7965C98.7608 84.6276 99.1132 78.4662 99.6413 73.1854C100.169 67.3761 101.754 56.4614 96.8247 51.8844C91.8956 47.4835 77.6365 52.2365 79.3969 42.3784Z" fill="#E5E5E5"/>
</g>
<defs>
<clipPath id="clip0_2704_1099">
<rect width="101" height="101" fill="white" transform="translate(0.5)"/>
</clipPath>
</defs>
</svg>
