<svg width="24" height="24" viewBox="0 0 24 24" fill="none" xmlns="http://www.w3.org/2000/svg">
<path d="M2 20V19C2 17.1435 2.7375 15.363 4.05025 14.0503C5.36301 12.7375 7.14348 12 9 12V12" stroke="#747474" stroke-width="1.5625" stroke-linecap="round" stroke-linejoin="round"/>
<path d="M15.8039 12.3134C15.9556 12.147 16.1403 12.0141 16.3462 11.9231C16.5521 11.8321 16.7748 11.7852 16.9999 11.7852C17.2251 11.7852 17.4477 11.8321 17.6537 11.9231C17.8596 12.0141 18.0443 12.147 18.1959 12.3134V12.3134C18.5209 12.6704 18.9859 12.8634 19.4679 12.8404C19.6929 12.8299 19.9177 12.8664 20.1277 12.9477C20.3378 13.029 20.5285 13.1533 20.6878 13.3126C20.8471 13.4718 20.9713 13.6626 21.0526 13.8727C21.1339 14.0827 21.1705 14.3074 21.1599 14.5324V14.5324C21.1369 15.0134 21.3299 15.4794 21.6859 15.8044C22.3909 16.4464 22.3909 17.5544 21.6859 18.1964C21.3299 18.5214 21.1369 18.9864 21.1599 19.4684C21.1705 19.6934 21.1339 19.9181 21.0526 20.1282C20.9713 20.3383 20.8471 20.529 20.6878 20.6883C20.5285 20.8476 20.3378 20.9718 20.1277 21.0531C19.9177 21.1344 19.6929 21.171 19.4679 21.1604V21.1604C19.2303 21.1492 18.9931 21.1905 18.7732 21.2814C18.5534 21.3723 18.3562 21.5106 18.1959 21.6864C18.0443 21.8528 17.8596 21.9858 17.6537 22.0767C17.4477 22.1677 17.2251 22.2147 16.9999 22.2147C16.7748 22.2147 16.5521 22.1677 16.3462 22.0767C16.1403 21.9858 15.9556 21.8528 15.8039 21.6864V21.6864C15.6436 21.5106 15.4465 21.3723 15.2267 21.2814C15.0068 21.1905 14.7696 21.1492 14.5319 21.1604V21.1604C14.3069 21.171 14.0822 21.1344 13.8722 21.0531C13.6621 20.9718 13.4713 20.8476 13.3121 20.6883C13.1528 20.529 13.0285 20.3383 12.9472 20.1282C12.8659 19.9181 12.8294 19.6934 12.8399 19.4684V19.4684C12.8511 19.2307 12.8096 18.9934 12.7185 18.7736C12.6274 18.5537 12.4889 18.3566 12.3129 18.1964V18.1964C12.1465 18.0448 12.0136 17.8601 11.9226 17.6542C11.8317 17.4482 11.7847 17.2256 11.7847 17.0004C11.7847 16.7753 11.8317 16.5526 11.9226 16.3467C12.0136 16.1407 12.1465 15.9561 12.3129 15.8044V15.8044C12.6699 15.4794 12.8629 15.0144 12.8399 14.5324C12.8294 14.3074 12.8659 14.0827 12.9472 13.8727C13.0285 13.6626 13.1528 13.4718 13.3121 13.3126C13.4713 13.1533 13.6621 13.029 13.8722 12.9477C14.0822 12.8664 14.3069 12.8299 14.5319 12.8404V12.8404C15.0129 12.8634 15.4789 12.6704 15.8039 12.3134V12.3134Z" stroke="#747474" stroke-width="1.5625"/>
<path d="M15.364 17.0002L16.454 18.0902L18.636 15.9102" stroke="#747474" stroke-width="1.5625" stroke-linecap="round" stroke-linejoin="round"/>
<path d="M9 12C10.0609 12 11.0783 11.5786 11.8284 10.8284C12.5786 10.0783 13 9.06087 13 8C13 6.93913 12.5786 5.92172 11.8284 5.17157C11.0783 4.42143 10.0609 4 9 4C7.93913 4 6.92172 4.42143 6.17157 5.17157C5.42143 5.92172 5 6.93913 5 8C5 9.06087 5.42143 10.0783 6.17157 10.8284C6.92172 11.5786 7.93913 12 9 12V12Z" stroke="#747474" stroke-width="1.5625" stroke-linecap="round" stroke-linejoin="round"/>
</svg>
